<svg width="76" height="76" viewBox="0 0 76 76" fill="none" xmlns="http://www.w3.org/2000/svg">
<path d="M67.5555 12.6666H8.44439C7.32459 12.6666 6.25065 13.1115 5.45883 13.9033C4.66701 14.6951 4.22217 15.769 4.22217 16.8888V59.1111C4.22217 60.2309 4.66701 61.3048 5.45883 62.0966C6.25065 62.8885 7.32459 63.3333 8.44439 63.3333H67.5555C68.6753 63.3333 69.7492 62.8885 70.5411 62.0966C71.3329 61.3048 71.7777 60.2309 71.7777 59.1111V16.8888C71.7777 15.769 71.3329 14.6951 70.5411 13.9033C69.7492 13.1115 68.6753 12.6666 67.5555 12.6666ZM8.44439 16.8888H67.5555V27.6133H50.2444V19.1688H46.4444V27.6133H29.5555V19.1688H25.3333V27.6133H8.44439V16.8888ZM8.44439 31.6666H67.5555V44.5022H61.0533V34.3477H56.9999V44.5022H39.9422V34.3477H35.8888V44.5022H18.7888V34.3477H14.7777V44.5022H8.44439V31.6666ZM50.2444 59.1111V51.2366H46.8666V59.1111H29.5555V51.2366H26.1777V59.1111H8.44439V48.5555H67.5555V59.1111H50.2444Z" fill="#373737"/>
</svg>
