<svg width="76" height="76" viewBox="0 0 76 76" fill="none" xmlns="http://www.w3.org/2000/svg">
<path d="M38 4.75C31.8411 4.75 25.9345 7.19662 21.5795 11.5516C17.2244 15.9066 14.7778 21.8133 14.7778 27.9722C14.741 31.3473 15.4625 34.6876 16.8889 37.7467C17.5957 39.0487 18.3855 40.3039 19.2534 41.5044C20.9445 43.7714 22.3618 46.2303 23.4756 48.83C24.242 51.5817 24.6605 54.4186 24.7212 57.2744H28.9434C28.8785 53.9228 28.3746 50.594 27.4445 47.3733C26.226 44.4338 24.652 41.6546 22.7578 39.0978C21.9917 38.0559 21.2868 36.9704 20.6467 35.8467C19.5124 33.3642 18.9497 30.6589 19.0001 27.93C19.0001 22.8713 21.0096 18.0198 24.5867 14.4427C28.1637 10.8657 33.0152 8.85611 38.0739 8.85611C43.1326 8.85611 47.9842 10.8657 51.5612 14.4427C55.1383 18.0198 57.1478 22.8713 57.1478 27.93C57.1517 30.6861 56.531 33.4072 55.3323 35.8889C54.6922 37.0126 53.9873 38.0982 53.2212 39.14C51.3373 41.6847 49.7706 44.4496 48.5556 47.3733C47.6218 50.6076 47.1179 53.9508 47.0567 57.3167H51.2789C51.3396 54.4609 51.7581 51.6239 52.5245 48.8722C53.6383 46.2725 55.0556 43.8136 56.7467 41.5467C57.618 40.319 58.4079 39.0355 59.1112 37.7044C60.5376 34.6454 61.2591 31.3051 61.2223 27.93C61.2111 21.7784 58.7595 15.8826 54.4057 11.5367C50.0519 7.19081 44.1517 4.74999 38 4.75Z" fill="#373737"/>
<path d="M39.33 32.7433C39.0134 32.4275 38.5844 32.2501 38.1372 32.2501C37.69 32.2501 37.261 32.4275 36.9444 32.7433L30.6111 39.0767L36.6489 45.6845V57.38H40.1111V44.3333L35.3822 39.1611L39.3722 35.1711C39.5323 35.0108 39.6585 34.82 39.7433 34.6099C39.8281 34.3998 39.8698 34.1748 39.8659 33.9483C39.8619 33.7218 39.8124 33.4983 39.7204 33.2913C39.6283 33.0843 39.4955 32.898 39.33 32.7433Z" fill="#373737"/>
<path d="M50.3713 61.5389H25.5657C25.1178 61.5389 24.6882 61.7169 24.3715 62.0336C24.0548 62.3503 23.8768 62.7799 23.8768 63.2278C23.8768 63.6758 24.0548 64.1053 24.3715 64.4221C24.6882 64.7388 25.1178 64.9167 25.5657 64.9167H50.3713C50.8192 64.9167 51.2488 64.7388 51.5655 64.4221C51.8822 64.1053 52.0602 63.6758 52.0602 63.2278C52.0602 62.7799 51.8822 62.3503 51.5655 62.0336C51.2488 61.7169 50.8192 61.5389 50.3713 61.5389Z" fill="#373737"/>
<path d="M46.4444 67.8723H29.5555C29.1075 67.8723 28.678 68.0502 28.3612 68.367C28.0445 68.6837 27.8666 69.1133 27.8666 69.5612C27.8666 70.0091 28.0445 70.4387 28.3612 70.7554C28.678 71.0722 29.1075 71.2501 29.5555 71.2501H46.4444C46.8923 71.2501 47.3219 71.0722 47.6386 70.7554C47.9553 70.4387 48.1332 70.0091 48.1332 69.5612C48.1332 69.1133 47.9553 68.6837 47.6386 68.367C47.3219 68.0502 46.8923 67.8723 46.4444 67.8723Z" fill="#373737"/>
<path d="M36.5644 22.99L30.8011 28.7534C30.51 29.0746 30.3536 29.4956 30.3643 29.929C30.375 30.3624 30.5519 30.7751 30.8584 31.0816C31.165 31.3882 31.5777 31.5651 32.0111 31.5758C32.4445 31.5864 32.8654 31.43 33.1867 31.1389L38.95 25.3334C39.1195 25.1798 39.2561 24.9933 39.3514 24.7853C39.4467 24.5773 39.4987 24.3521 39.5044 24.1234C39.51 23.8947 39.4691 23.6672 39.3842 23.4548C39.2992 23.2423 39.172 23.0494 39.0102 22.8876C38.8484 22.7258 38.6555 22.5986 38.443 22.5137C38.2306 22.4287 38.0031 22.3878 37.7744 22.3935C37.5457 22.3991 37.3205 22.4511 37.1125 22.5464C36.9045 22.6417 36.7181 22.7783 36.5644 22.9478V22.99Z" fill="#373737"/>
</svg>
