<svg width="76" height="76" viewBox="0 0 76 76" fill="none" xmlns="http://www.w3.org/2000/svg">
<path d="M52.7778 25.3334V19.1057C52.7778 17.165 52.3956 15.2434 51.6529 13.4504C50.9102 11.6575 49.8217 10.0284 48.4495 8.65619C47.0772 7.28395 45.4481 6.19542 43.6552 5.45277C41.8623 4.71012 39.9407 4.32788 38 4.32788C36.0594 4.32788 34.1377 4.71012 32.3448 5.45277C30.5519 6.19542 28.9228 7.28395 27.5505 8.65619C26.1783 10.0284 25.0898 11.6575 24.3471 13.4504C23.6045 15.2434 23.2222 17.165 23.2222 19.1057V33.8834C23.2222 34.4433 23.4447 34.9803 23.8406 35.3762C24.2365 35.7721 24.7734 35.9945 25.3333 35.9945C25.8932 35.9945 26.4302 35.7721 26.8261 35.3762C27.222 34.9803 27.4445 34.4433 27.4445 33.8834V29.5557H44.3333V25.3334H27.4445V19.1057C27.4445 16.3062 28.5566 13.6213 30.5361 11.6418C32.5157 9.6622 35.2005 8.5501 38 8.5501C40.7995 8.5501 43.4844 9.6622 45.4639 11.6418C47.4435 13.6213 48.5556 16.3062 48.5556 19.1057V33.7779C48.5556 34.3378 48.778 34.8748 49.1739 35.2707C49.5698 35.6666 50.1068 35.889 50.6667 35.889C51.2266 35.889 51.7636 35.6666 52.1595 35.2707C52.5554 34.8748 52.7778 34.3378 52.7778 33.7779V29.5557H63.3333V67.5557H12.6667V29.5557H19V25.3334H8.44446V67.7457C8.44446 68.8151 8.86928 69.8407 9.62547 70.5969C10.3817 71.3531 11.4073 71.7779 12.4767 71.7779H63.5233C64.5928 71.7779 65.6184 71.3531 66.3746 70.5969C67.1307 69.8407 67.5556 68.8151 67.5556 67.7457V25.3334H52.7778Z" fill="#373737"/>
</svg>
