<svg width="76" height="76" viewBox="0 0 76 76" fill="none" xmlns="http://www.w3.org/2000/svg">
<path d="M38.0001 4.22223C31.3195 4.22223 24.7889 6.20326 19.2342 9.91481C13.6794 13.6264 9.35005 18.9017 6.79349 25.0738C4.23693 31.2459 3.56801 38.0375 4.87134 44.5897C6.17466 51.142 9.39168 57.1606 14.1156 61.8845C18.8395 66.6084 24.8581 69.8254 31.4104 71.1288C37.9626 72.4321 44.7542 71.7632 50.9263 69.2066C57.0984 66.65 62.3737 62.3207 66.0853 56.7659C69.7968 51.2112 71.7779 44.6806 71.7779 38C71.7779 29.0416 68.2191 20.4501 61.8846 14.1155C55.55 7.78095 46.9585 4.22223 38.0001 4.22223ZM38.0001 67.5556C32.1545 67.5556 26.4403 65.8222 21.5799 62.5746C16.7195 59.327 12.9313 54.711 10.6943 49.3104C8.45732 43.9099 7.87202 37.9672 9.01243 32.234C10.1528 26.5008 12.9677 21.2345 17.1011 17.1011C21.2346 12.9677 26.5009 10.1528 32.2341 9.01235C37.9673 7.87195 43.9099 8.45724 49.3105 10.6942C54.7111 12.9312 59.327 16.7194 62.5746 21.5798C65.8222 26.4402 67.5556 32.1545 67.5556 38C67.5556 45.8386 64.4418 53.3562 58.899 58.8989C53.3563 64.4417 45.8387 67.5556 38.0001 67.5556Z" fill="#373737"/>
<path d="M39.9422 38.8444V22.6944C39.9422 22.1345 39.7198 21.5976 39.3239 21.2016C38.928 20.8057 38.391 20.5833 37.8311 20.5833C37.2712 20.5833 36.7342 20.8057 36.3383 21.2016C35.9424 21.5976 35.72 22.1345 35.72 22.6944V41.1033L48.1755 49.5478C48.405 49.7203 48.6672 49.8443 48.9462 49.9121C49.2252 49.9798 49.515 49.99 49.7981 49.9419C50.0811 49.8938 50.3514 49.7885 50.5923 49.6324C50.8333 49.4763 51.0399 49.2727 51.1994 49.0341C51.359 48.7954 51.4682 48.5267 51.5204 48.2444C51.5726 47.9621 51.5667 47.6721 51.503 47.3922C51.4393 47.1122 51.3192 46.8482 51.1499 46.6163C50.9807 46.3844 50.766 46.1894 50.5189 46.0433L39.9422 38.8444Z" fill="#373737"/>
<path d="M16.8888 37.8733C16.8695 34.0755 17.8813 30.3437 19.8162 27.0757C21.7511 23.8077 24.5366 21.126 27.8758 19.3167C31.2149 17.5073 34.9825 16.6381 38.7769 16.8017C42.5712 16.9653 46.25 18.1555 49.4211 20.2456L51.2155 17.3745C48.2034 15.4014 44.7918 14.12 41.2256 13.6221C37.6594 13.1243 34.0273 13.4225 30.59 14.4953C27.1528 15.5681 23.9958 17.3888 21.3459 19.8267C18.696 22.2646 16.6188 25.2591 15.2638 28.5952C13.9087 31.9312 13.3093 35.526 13.5086 39.1212C13.708 42.7164 14.7011 46.2229 16.4167 49.3887C18.1322 52.5545 20.5277 55.301 23.4309 57.431C26.3341 59.561 29.673 61.0216 33.2077 61.7078L33.7777 58.4778C29.0235 57.5074 24.7486 54.9288 21.6726 51.1761C18.5966 47.4234 16.9073 42.7256 16.8888 37.8733Z" fill="#373737"/>
</svg>
